<?xml version="1.0" encoding="utf-8" ?>
<svg baseProfile="full" height="300mm" version="1.1" viewBox="0,0,200,300" width="200mm" xmlns="http://www.w3.org/2000/svg" xmlns:ev="http://www.w3.org/2001/xml-events" xmlns:xlink="http://www.w3.org/1999/xlink"><defs /><rect fill="#222222" height="300" width="200" x="0" y="0" /><text fill="#FFFFFF" style="font-size:12px; font-family:Arial; font-weight:bold;" x="10" y="20">Jianchengwang</text><text fill="#FFFFFF" style="font-size:4px; font-family:Arial" x="10" y="280">ATHLETE</text><text fill="#FFFFFF" style="font-size:9px; font-family:Arial" x="10" y="290">Jianchengwang</text><text fill="#FFFFFF" style="font-size:4px; font-family:Arial" x="120" y="280">STATISTICS</text><text fill="#FFFFFF" style="font-size:3px; font-family:Arial" x="120" y="285">Number: 4</text><text fill="#FFFFFF" style="font-size:3px; font-family:Arial" x="120" y="290">Weekly: 1.3</text><text fill="#FFFFFF" style="font-size:3px; font-family:Arial" x="141" y="285">Total: 83.2 km</text><text fill="#FFFFFF" style="font-size:3px; font-family:Arial" x="141" y="290">Avg: 20.8 km</text><text fill="#FFFFFF" style="font-size:3px; font-family:Arial" x="167" y="285">Min: 10.3 km</text><text fill="#FFFFFF" style="font-size:3px; font-family:Arial" x="167" y="290">Max: 31.3 km</text><polyline fill="none" points="54.1790034417063,42.56971348205116 53.76850516349077,34.80451815132983 61.97847074083984,38.76324939785991 65.262456972152,43.6355219730176 64.71512593328953,50.639390534255654 67.31494836648926,58.86128817778081 81.95605364674702,71.0418077694485 82.64021744485945,75.9139923673356 77.4405725793913,87.33312298776582 81.13505708891898,99.51344858726952 79.21939845429733,111.69369120139163 84.69270883919671,115.04324337199796 93.31317269615829,113.6729727878701 80.99822432966903,105.14682111074217 81.81922088749707,97.07739010604564 77.30373981967568,86.26734054950066 80.04039501212537,71.80308748804964 77.4405725793913,61.90642585628666 80.45089329080656,59.774830026202835 77.85107085807249,50.487132814130746 71.83042943431064,43.48326365672983 61.29430694272742,37.240661494550295 50.21085341274738,35.56581330264453 29.959604987874627,40.28583600465208 16.823660063091666,39.524542863247916 15.318499707616866,41.808421313995495 54.1790034417063,39.67680151737295 64.0309621351771,41.19938734569587 68.40961044328287,44.701329829054885 78.94573293533176,67.38766060653143 76.34591050213203,85.81057645299006 81.54555536806583,100.27471618156414 78.53523465618491,111.54143868072424 83.73487952165306,115.5 94.4078347729519,113.06396330264397 80.58772605052218,104.69006183778401 81.81922088749707,98.44767341041006 76.89324154052883,83.37449929956347 80.04039501212537,72.56436688289978 77.4405725793913,61.44965553539805 80.17722777230665,59.470316128456034 78.94573293533176,53.227769797085784 73.19875703053549,44.24455511162523 61.56797246169299,37.39292034320533 50.48451893217862,35.41355429845862 31.601598103065044,40.43809459381737 17.918322139885277,39.9813187867403 16.2763290242292,41.96067977359053 54.58950172085315,39.67680151737295 64.8519586934708,41.50390435568988 68.27277768356726,43.94003856845666 79.21939845429733,67.84442941041198 76.89324154052883,87.33312298776582 81.54555536806583,101.49274365894962 78.67206741590053,111.38918614701834 80.04039501212537,114.12972976628225 83.73487952165306,115.34774780378211 94.27100201370195,113.6729727878701 80.58772605052218,105.14682111074217 81.40872260835022,96.31612115015741 76.89324154052883,84.89704790944234 80.04039501212537,72.7166227226844 77.30373981967568,61.601912322454154 80.45089329080656,58.40451707865577 79.49306397372857,53.38002728438005 74.01975358836353,45.61487891350407 55.957829317543656,35.41355429845862 49.52668961463496,35.26129528135061 31.46476534381509,40.43809459381737 17.918322139885277,39.9813187867403 16.002663505263627,42.26519665424712 52.81067584594712,39.06776682322379 68.40961044328287,43.6355219730176 79.49306397372857,67.53991688741371 76.89324154052883,86.41959522222169 81.81922088749707,101.6449970350368 78.67206741590053,111.38918614701834 83.32438124297187,115.19549559464213 94.4078347729519,113.36846807098482 80.45089329080656,105.14682111074217 80.99822432966903,96.62062877137214 76.75640878034756,83.98351889918558 80.04039501212537,69.21473512158263 77.30373981967568,61.297398736001924 79.90356225240976,60.53611454332713 80.04039501212537,58.10000294796191 76.75640878034756,48.35552336683031 71.83042943431064,43.48326365672983 56.09466207632795,35.10903625097126 49.93718789331615,34.5 15.592165226582438,40.59035317006055 25.307291160337627,41.96067977359053 55.957829317543656,39.37228419620078 68.40961044328287,43.02648862765636 79.90356225240976,67.08314800541848 76.89324154052883,85.6583217283478 82.2297191657126,100.27471618156414 78.94573293533176,111.38918614701834 84.1453778007999,114.89099113701377 94.68150029238313,112.75945848191623 80.58772605052218,104.84231494204141 80.99822432966903,96.31612115015741 76.75640878034756,85.20155747584067 80.04039501212537,69.9760156184202 77.16690705996007,60.840628259116784 80.45089329080656,58.55677412485238 76.75640878034756,48.05100752401631 71.28309839591384,42.56971348205116 55.957829317543656,35.10903625097126 50.21085341274738,34.652259082417004 31.0542670651339,39.829060158575885 17.507823861204088,39.829060158575885 16.549994543660432,41.808421313995495 19.4234824962914,42.112938220379874" stroke="#4dd2ff" stroke-linecap="round" stroke-linejoin="round" stroke-width="0.5"><title>2021-03-06 10.3km</title></polyline><polyline fill="none" points="108.99243697430938,39.4783553048037 111.30672268895432,39.02391016029287 114.43781512603164,44.325762953958474 115.93529411731288,40.538726857164875 118.93025210080668,40.084281983668916 118.52184874005616,38.11501952272374 124.78403361327946,37.20612842054106 134.85798319336027,40.38724524551071 140.57563025224954,38.72094666620251 148.7436974789016,40.69020845578052 156.91176470555365,45.68909397535026 162.9016806720756,58.56494651583489 185.5,55.68682286143303 182.23277310933918,59.62530668836553 184.9554621852003,63.10934280336369 179.3739495803602,81.74124618200585 183.59411764750257,96.58603762229905 181.68823529453948,104.15986307454295 176.10672268876806,106.28052842209581 174.4731092439033,109.00709443876985 172.70336134452373,112.7939847507514 174.8815126051195,114.46021393430419 184.41092436993495,114.00578794803005 169.02773109264672,104.76576771773398 169.4361344538629,95.52569948555902 164.94369747908786,84.9222833494423 168.48319327738136,72.0466216277564 165.35210084030405,61.594545330968685 167.93865546258166,61.291585681727156 168.34705882379785,59.019386667059734 167.3941176473163,53.41461668582633 160.7235294119455,44.17428166558966 144.5235294122249,35.842790896771476 137.98907562997192,35.69130888511427 119.74705882417038,40.993171614944 106.26974789891392,40.23576362093445 104.5,42.205023733433336 106.26974789891392,43.71983772062231 146.02100840350613,40.38724524551071 158.68151260493323,46.44649964640848 168.07478991616517,69.1685197900515 164.94369747908786,85.52819454600103 170.25294117676094,101.88771882548463 167.12184873968363,111.27922959369607 169.02773109264672,114.46021393430419 172.97563025262207,115.06611506815534 183.0495798322372,113.39988645305857 169.02773109264672,104.31133925484028 169.84453781554475,96.73751444765367 165.21596638625488,87.0429716341896 168.48319327738136,70.2288736407645 165.35210084030405,61.443065512692556 168.34705882379785,61.140105837839656 168.34705882379785,57.807546005933546 166.16890756320208,50.83944617793895 160.58739495789632,44.325762953958474 148.6075630253181,37.05464652541559 138.66974789928645,35.53982686041854 120.1554621849209,41.14465317479335 106.26974789891392,40.38724524551071 105.0445378147997,43.265393659705296 146.83781512640417,40.38724524551071 156.36722689121962,44.02280036371667 168.34705882379785,66.89633083948866 165.35210084030405,82.49863649986219 170.25294117676094,100.67590737203136 167.53025210043415,111.27922959369607 172.70336134452373,115.36906555783935 182.77731092460454,113.55136184592266 173.52016806742176,106.28052842209581 169.02773109264672,105.22019606467802 169.4361344538629,95.67717640113551 164.80756302550435,82.80159253673628 168.34705882379785,72.0466216277564 165.6243697484024,61.443065512692556 168.34705882379785,60.988625980797224 167.93865546258166,54.02053861692548 165.21596638625488,49.173157391604036 151.6025210088119,40.993171614944 149.6966386558488,37.50909217284061 144.5235294122249,35.994272895623 138.1252100840211,35.53982686041854 120.6999999997206,40.993171614944 110.76218487368897,39.629836993757635 104.77226890716702,41.14465317479335 105.8613445381634,43.265393659705296 110.35378151293844,43.56835638009943 147.3823529407382,40.993171614944 156.36722689121962,45.234650417463854 168.8915966390632,68.56260302022565 165.35210084030405,87.49740450875834 169.84453781554475,97.34342161926907 167.3941176473163,111.27922959369607 172.70336134452373,115.21759031980764 182.50504201743752,112.94546019576956 169.02773109264672,104.91724384599365 169.57226890744641,96.13160707009956 164.94369747908786,84.31637194706127 168.34705882379785,72.50105833390262 164.94369747908786,60.83714611118194 168.07478991616517,61.291585681727156 168.8915966390632,58.7164265793981 162.35714285774156,46.1435374164721 149.5605042022653,37.35761030309368 139.0781512609683,35.69130888511427 119.74705882417038,40.38724524551071 105.8613445381634,39.93280033348128 104.77226890716702,41.59909777727444 114.02941176481545,43.265393659705296 141.9369747894816,40.084281983668916 151.6025210088119,41.59909777727444 156.36722689121962,44.477244230452925 169.3000000002794,69.1685197900515 165.6243697484024,87.19444927223958 170.66134453751147,98.10080529307015 168.07478991616517,112.03660733369179 172.97563025262207,114.91463980381377 181.14369747927412,114.15726328990422 181.824369748123,112.64250929327682 169.02773109264672,103.85691067564767 170.25294117676094,98.55523534247186 164.94369747908786,83.55898240301758 168.48319327738136,72.50105833390262 165.35210084030405,59.47382670210209 168.07478991616517,54.02053861692548 161.54033613484353,45.08316920651123 149.15210084058344,37.50909217284061 138.39747899165377,34.63093444216065 119.61092437012121,39.78131867025513 106.95042016869411,39.17539188801311 105.58907563006505,41.14465317479335 107.22268907586113,42.8109494834207 119.20252100843936,42.6594680652488 144.5235294122249,40.084281983668916 156.77563025197014,44.477244230452925 169.02773109264672,67.95668604434468 165.7605042019859,81.4382899645716 166.3050420167856,89.92104454687797 170.66134453751147,99.615571673261 168.07478991616517,112.18808284273837 172.56722689094022,114.91463980381377 180.73529411805794,114.46021393430419 181.27983193285763,111.88513181137387 175.28991596680135,108.40119124087505" stroke="#4dd2ff" stroke-linecap="round" stroke-linejoin="round" stroke-width="0.5"><title>2021-02-25 11.9km</title></polyline><polyline fill="none" points="14.5,256.3666600472716 15.152269399666693,257.41136162306066 17.20790629577823,259.7536618028025 18.769399707147386,260.91929770183197 20.844802342588082,261.55709402299544 20.99304538796423,261.062252323587 21.358711566601414,261.1062383292083 21.487188872590195,260.8973046690444 21.754026354290545,259.159843242589 21.7836749634007,257.4773424914165 21.487188872590195,255.92678317065293 20.1826500731986,253.1885159105732 17.59333821380278,248.65760075279104 17.54392386530526,248.32767353429517 17.74158125912072,248.0857263714206 39.22693997074384,238.55044747055217 40.02745241584489,238.40746791569836 40.64019033673685,238.4954553528296 41.22327964863507,238.770415707113 41.796486090810504,239.43031816696748 42.83418740850175,238.62743639600376 43.249267935578246,236.97766365338612 43.73352855053963,236.20776248803304 44.89970717421966,235.3608659000529 47.05417276720982,234.3379833885483 48.92203513911227,233.7990420290662 54.42679355782457,232.8861362223979 56.749267935578246,232.28119508108648 58.78513909224421,231.95122599021124 59.002562225505244,232.0612157809519 59.71412884333404,231.56626098419656 60.06991215230664,231.85223509836942 60.81112737924559,231.53326393020689 65.4758418740821,230.67533756455668 67.71925329428632,230.07038605622802 70.5161054172786,228.31051099185424 72.39385065884562,226.6936046130577 72.86822840414243,226.77060061450902 72.84846266469685,226.396619605468 75.22035139094805,223.71272407959623 76.00109809666174,223.06374095668434 76.97950219624909,223.00874223684514 78.12591508054174,224.08671287063044 78.7485358712147,224.1857097220418 79.67752562230453,224.9556826391272 78.52122986828908,224.05371390328946 78.07650073210243,224.03171458703582 77.00915080535924,223.07474069781165 76.41617862379644,222.96474324405426 76.39641288435087,222.76674759091838 77.98755490488838,219.9507765079543 82.63250366033753,212.55855982832873 84.00622254761402,210.45742089109262 84.65849194733892,209.92938059056905 84.93521229876205,208.79628681226313 84.42130307469051,197.0797331745125 84.1939970717649,195.83650582080736 81.92093704245053,191.4466070847193 82.04941434849752,191.67765811550635 82.30636896053329,191.68866053521197 83.33418740850175,191.2595654706165 85.8543191801291,190.70944150236755 86.7338945827214,190.34635839652765 88.18667642760556,190.19232283038582 88.39421669114381,190.32435332691966 89.01683748175856,190.3133507907187 90.84516837482806,189.56517612400057 91.58638360176701,188.92702371003543 92.3078330893768,188.75098110850377 95.31222547590733,188.56393558083073 95.5,189.12507134920452 95.22327964863507,188.44290597700456 91.91251830162946,188.61894899953768 91.28989751101471,189.00404227255785 90.97364568087505,189.55417352292716 89.84699853591155,190.060292198541 88.4535139092477,190.3023482535791 87.78147877013544,190.5774114004671 87.12920937041054,190.5774114004671 87.06002928258386,190.48939125733887 87.37628111278173,190.14831263479573 87.37628111278173,190.34635839652765 86.62518301611999,190.6764339895817 87.18850658857264,190.4233761105279 87.21815519768279,190.59941642684134 86.83272327971645,190.47838873520232 86.87225475843297,190.36836346237396 84.33235724747647,191.07252358494588 82.66215226944769,191.3475850875475 82.2371888726484,191.54562900579913 82.2964860908105,191.72166778866813 81.90117130312137,191.534626573899 81.55527086387156,191.6666556948403 83.6010248902021,195.33040983450337 83.99633967794944,196.41961394928512 83.94692532945191,197.8718717811571 84.40153733530315,207.25614337769366 84.23352855053963,208.60927037674992 83.92715959006455,209.23632441386872 83.9568081991747,209.8413736635339 80.1716691069305,215.94671174601535 77.55270863836631,219.77477627363987 75.83308931189822,221.897763074041 75.34882869693683,222.83274617572897 74.1332357248175,224.07571321577416 73.33272327965824,225.30766872743698 72.41361639823299,226.11063339639077 72.11713030748069,226.12163287770818 72.10724743781611,226.319623380783 70.22950219619088,228.01352970703738 67.52159590041265,229.6194203588966 64.72474377747858,230.48835285579844 60.445461200608406,231.28028623605496 59.407759882858954,231.28028623605496 58.676427525584586,231.65425308683916 55.691800878499635,232.09421269987797 48.348828696936835,233.57906531698973 46.58967789169401,234.05201478426898 43.22950219619088,235.61383559294336 40.02745241584489,235.61383559294336 39.543191800883505,236.22975972793938 39.80014641286107,236.8786766180492 39.76061493414454,237.51659173579537 39.49377745244419,237.978528300584 38.99963396781823,238.34147729848337 24.521229868230876,244.76440583609656 16.94106881407788,247.97575023838726 17.039897510956507,248.4706420991788 19.40190336748492,252.91358627045702 19.886163982446305,253.39746204549738 20.99304538796423,255.79481981541176 21.398243045434356,257.8072463274875 20.99304538796423,260.8973046690444 20.726207906322088,260.9962732870554 18.769399707147386,260.5674087278676 18.40373352856841,255.9817678621912 18.087481698428746,255.42092290979053 17.504392386530526,255.18998604479566 14.796486090752296,255.37693496734573 14.618594436265994,255.7508320003617 14.796486090752296,256.4986228180351 15.735358711564913,256.4436383465945 15.794655929727014,256.7405542141205 15.814421669114381,256.53161348964204" stroke="#ff1400" stroke-linecap="round" stroke-linejoin="round" stroke-width="0.5"><title>2021-02-21 29.7km</title></polyline><polyline fill="none" points="110.4120054570376,258.3458178166984 110.78035470674513,258.0794118512931 111.12107776262565,256.1018414366117 111.15791268763132,254.84150758141914 110.90006821288262,253.09956100604904 110.44884038204327,251.88018339552218 109.05832196457777,249.76929881747492 107.2257844475098,246.32622312509193 107.2534106412204,246.03929570171022 107.60334242839599,245.79335736546636 127.44815825379919,237.01097961973574 128.0835607094341,236.89824948150635 128.76500682131154,237.0007314297036 129.88847203273326,237.8000876278893 130.7172578444588,237.1339578317784 131.1869031378301,235.5659762057112 131.77626193728065,234.71536323853798 132.7155525238486,234.06971323370817 134.82435197819723,233.0551133631816 137.34754433837952,232.45044876210886 141.5283083220129,231.75354341531784 142.2742155525484,231.4563325531999 144.4198499317863,231.03613663224678 145.54331514326623,230.86190862447984 145.77353342430433,230.98489312676247 147.45873124152422,230.5032031075025 152.46828103682492,229.5295684513403 153.13130968622863,229.26309864459472 153.72987721691607,229.23235209039558 156.52012278308393,227.45928749565792 158.3250341063831,225.94242534889054 158.76705320598558,226.05516576158698 158.8499317871756,225.6144526379212 158.7302182810381,225.8194356871536 158.78547066851752,226.08591312852514 159.770804911328,227.06982471698575 160.0010231923079,227.52078150325542 158.53683492500568,229.14011238070088 158.83151432470186,229.8985256700762 158.905184174655,230.6364367102069 158.7302182810381,231.48707853851374 159.21828103682492,231.35384587862063 161.17053206003038,231.46658121585642 162.12824010913027,231.30260250859283 164.1449522509938,231.37434322052286 166.2353342428105,234.62312773586018 167.708731241466,233.44455675032805 169.95566166442586,232.4709459170408 170.48055934516015,231.7945379593075 173.46418826736044,229.15036124084145 175.0112551159691,228.39194323086122 175.67428376537282,227.89999385482952 177.05559345160145,225.87068139483745 177.60811732604634,225.27622984236223 180.67462482943665,223.56460291652184 182.22169167804532,222.12968730793364 182.55320600274717,222.1604356792086 182.5992496589315,222.7856508548939 182.87551159615396,223.10338191081973 183.43724420189392,223.18537688562355 184.47783083218383,222.7651520482832 185.5,222.7856508548939 184.3396998635726,222.6831567867266 184.23840381990885,222.34492574149772 183.1793997271452,222.0886894673822 182.55320600274717,221.62746279712155 181.5862892223522,215.15985346614616 180.50886766711483,212.5973129021295 179.2380627557868,210.3422319890451 179.28410641197115,210.11672156937857 180.4628240109305,209.14292171394482 181.3560709413141,208.1793646128208 181.19952251017094,207.84109273354989 181.41132332879351,207.63607900973875 181.42053206003038,206.71351292216423 181.92701227829093,203.5664841739199 182.3414051841828,202.12107851396286 182.44270122784656,200.80892214034247 182.81105047749588,199.4865000384234 183.07810368348146,199.09694656479405 184.0818553888239,198.80990635448688 184.33049113233574,198.9431751088705 184.41336971352575,198.72789473977173 185.25136425648816,198.51261398466886 184.76330150064314,198.57412281123106 184.76330150064314,198.15381186846935 184.55150068213698,197.74375099421013 183.36357435199898,193.14072158585623 183.0044338335283,193.16122544893005 182.83867667114828,192.9971944463614 182.59004092763644,191.6541821833016 181.89938608458033,191.736198630133 181.82571623462718,191.86947523671552 181.991473396949,192.07451588098775 182.5992496589315,191.75670273309515 182.64529331511585,191.87972727724264 184.33049113233574,197.87702093196276 184.20156889496138,198.2050693793135 182.43349249655148,198.93292367149115 177.69099590723636,199.14820367300126 174.69815825374098,199.0354380060453 174.38506139151286,198.1333088580286 174.19167803542223,198.09230282660428 173.7128240109305,198.2768298576848 173.8233287857729,198.61512867813144 173.7404502046411,199.0456894346862 171.43826739426004,199.21996358772594 169.5965211459552,199.10719798816717 169.02557980897836,199.20971217397164 169.1913369713002,200.08107921955525 169.30184174625902,202.30559935409838 169.1913369713002,202.78740243343054 169.31105047749588,202.99242443409457 169.45839017740218,205.20663973913906 169.49522510229144,207.28755487615854 169.40313778992277,208.90715845662635 169.0716234652209,209.72720257451147 169.08083219645778,210.3422319890451 166.07878581172554,215.12910330339946 163.0491132332827,219.62879343608074 161.81514324696036,221.04323980688787 161.31787175987847,221.97594533365918 160.48908594815293,223.06238440239395 158.6197135061957,225.04049824012327 158.16848567535635,225.1634886989632 158.18690313777188,225.5324593203186 157.72646657569567,225.99367100411473 156.54774897679454,226.916089062237 154.60470668488415,227.9512386754286 153.91405184176983,228.56617481869034 152.77216916781617,229.06837033531338 150.01875852659578,229.72429601345357 147.3482264665654,230.2264866915939 145.9300818553893,230.3392230860627 145.44201909960248,230.58519303430512 136.05832196451956,232.37870869237668 134.18894952250412,232.86039119654743 131.5000000000582,234.14145229435235 129.80559345160145,234.3566692194654 128.52557980903657,234.21319131219934 127.62312414735788,234.43865651819942 127.531036834931,234.653872911309 127.9362210095278,235.46349303453462 127.9362210095278,235.92466661682556 127.72442019102164,236.4165831548744 127.19031377905048,236.8367602706494 112.01432469306746,243.53889918119967 106.58117326063802,245.80360480620584 106.67326057306491,246.24424393111985 110.37517053209012,252.89462445658864 110.72510231926572,255.13866065545153 110.46725784451701,257.536351710507 110.31991814466892,257.87448378424597 108.40450204646913,257.61832320959365 108.28478854027344,257.4953659400562 107.93485675309785,253.12005464180402 107.62175989092793,252.67944070392696 106.94952251028735,252.43351594384876 104.5,252.77166235932236 104.6473396999063,253.7553556183193 105.36562073673122,253.71436855977663 105.4577080491581,254.0320178981783 105.5129604365793,253.90905696345726" stroke="#ff0000" stroke-linecap="round" stroke-linejoin="round" stroke-width="0.5"><title>2021-02-18 31.3km</title></polyline></svg>