<?xml version="1.0" encoding="utf-8" ?>
<svg baseProfile="full" height="300mm" version="1.1" viewBox="0,0,200,300" width="200mm" xmlns="http://www.w3.org/2000/svg" xmlns:ev="http://www.w3.org/2001/xml-events" xmlns:xlink="http://www.w3.org/1999/xlink"><defs /><rect fill="#222222" height="300" width="200" x="0" y="0" /><text fill="#FFFFFF" style="font-size:12px; font-family:Arial; font-weight:bold;" x="10" y="20">Over 10km Runs</text><text fill="#FFFFFF" style="font-size:4px; font-family:Arial" x="10" y="280">ATHLETE</text><text fill="#FFFFFF" style="font-size:9px; font-family:Arial" x="10" y="290">jianchengwang</text><text fill="#FFFFFF" style="font-size:4px; font-family:Arial" x="120" y="280">STATISTICS</text><text fill="#FFFFFF" style="font-size:3px; font-family:Arial" x="120" y="285">Number: 5</text><text fill="#FFFFFF" style="font-size:3px; font-family:Arial" x="120" y="290">Weekly: 1.2</text><text fill="#FFFFFF" style="font-size:3px; font-family:Arial" x="141" y="285">Total: 95.2 km</text><text fill="#FFFFFF" style="font-size:3px; font-family:Arial" x="141" y="290">Avg: 19.0 km</text><text fill="#FFFFFF" style="font-size:3px; font-family:Arial" x="167" y="285">Min: 10.3 km</text><text fill="#FFFFFF" style="font-size:3px; font-family:Arial" x="167" y="290">Max: 31.3 km</text><polyline fill="none" points="30.198049146216363,53.02975205890834 33.698393994010985,52.58461482624989 35.69859104976058,34.0 36.09863046137616,36.44828773138579 36.99871913669631,35.22414443932939 36.19864031393081,52.2507618018426 37.79879795899615,51.02663331653457 37.39875854738057,53.47488914011046 52.200216761790216,50.69277989398688 56.700660137459636,51.13791777158622 60.50103454338387,53.80874185170978 69.0018720314838,72.17050960822962 65.70154688926414,72.28179226268549 63.50133012793958,76.39924380672164 61.101093660108745,94.09300951706246 64.1013892441988,97.0975874440046 72.70223658485338,98.432953194133 73.1022759960033,97.0975874440046 65.50152718368918,93.31404374167323 67.60173409199342,89.19664549967274 64.60143850836903,79.96027251612395 67.10168482828885,71.28024803299922 66.30160600598902,66.49508167372551 64.60143850836903,64.93711675168015 66.30160600598902,65.04840002185665 66.30160600598902,61.26476351323072 65.00147791905329,56.590844463324174 60.30101483827457,50.80406437756028 56.30062072630972,50.24764186493121 57.90077837090939,51.916908692219295 51.70016749761999,47.688095253543 43.499359568115324,50.80406437756028 38.098827517125756,49.0235115023097 32.39826590800658,52.36204615281895 25.697605770546943,50.24764186493121 21.89723136369139,51.58305549714714 26.8977240039967,52.69589914835524 52.000197055749595,50.69277989398688 59.80096557410434,53.14103634364437 68.20179320918396,70.5012686571572 65.50152718368918,82.8536011967808 69.50192129565403,92.98020112444647 67.20169468130916,102.21648207458202 71.8021479099989,106.0 77.30268981354311,105.33232116210274 78.20277848886326,103.99696246313397 68.70184247288853,98.76679441845044 71.00206908676773,94.31557108217385 68.001773503609,85.41307891928591 70.10198041191325,74.28487841808237 67.60173409199342,61.042196318507195 62.201202041469514,53.25232061895076 54.00039411196485,48.800942222587764 50.80007882229984,47.688095253543 48.89989161910489,49.0235115023097 46.69967485778034,47.465525745996274 32.7983053191565,51.694339905167 25.697605770546943,50.47021089831833 21.89723136369139,52.028193071484566 53.100305437110364,50.80406437756028 60.80106410197914,54.92158360697795 68.20179320918396,71.28024803299922 64.9014680669643,85.30179738323204 66.70164541713893,101.77136159862857 71.30209864582866,105.77744042559061 76.90265040239319,105.33232116210274 78.20277848886326,103.88568250986282 69.0018720314838,98.432953194133 71.20208879327402,94.42685185035225 68.10178335616365,85.5243604456773 70.0019705593586,74.39616089244373 65.00147791905329,56.590844463324174 50.80007882229984,47.910664723138325 40.09902457334101,48.800942222587764 32.49827576102689,51.694339905167 25.597595917992294,50.35892638633959 21.79722151113674,51.24920221720822 23.597398861777037,52.91846776509192 53.40033499477431,51.13791777158622 60.701054248958826,55.03286773059517 68.40181291475892,71.16896529367659 68.001773503609,72.9494879890699 64.30140894977376,75.06385553814471 64.80145821394399,82.74231944303028 66.70164541713893,101.21496079000644 71.60212820442393,105.88872021751013 78.10276863584295,104.77592187013943 68.90186217892915,98.32167276728433 70.90205923467875,94.64941335842013 67.80175379803404,85.19051583809778 70.0019705593586,73.61718337435741 67.30170453386381,60.9309127072338 64.9014680669643,56.70212844433263 55.40053205098957,51.24920221720822 54.10040396498516,48.68965756811667 49.19992117770016,49.134796127909794 46.59966500476003,47.242956200498156 30.9981279685162,51.694339905167 26.197655034717172,49.91378824331332 22.09725106973201,51.24920221720822 23.597398861777037,52.80718346138019 31.39816737966612,53.14103634364437 53.80037440592423,51.47177108016331 60.30101483827457,54.2538786677178 69.0018720314838,71.05768254469149 64.30140894977376,72.9494879890699 64.60143850836903,81.40693765738979 66.40161585900933,101.21496079000644 71.30209864582866,105.88872021751013 77.30268981354311,105.33232116210274 78.0027587832883,103.88568250986282 68.70184247288853,98.432953194133 71.00206908676773,94.31557108217385 67.80175379803404,84.74538956186734 69.90196070633829,73.61718337435741 67.30170453386381,60.59706181567162 61.401123218704015,52.69589914835524 51.20011823344976,47.02038661704864 49.29993103025481,47.910664723138325 47.199724121484905,46.575247336761095 42.39925118768588,48.912226867163554 32.39826590800658,50.69277989398688 23.297369303181767,50.02507279324345 21.89723136369139,51.58305549714714 30.098039293661714,53.02975205890834 37.79879795899615,51.47177108016331 55.00049264030531,51.694339905167 59.0008867518045,53.47488914011046 68.20179320918396,71.05768254469149 64.80145821394399,71.61409619497135 63.70134983304888,73.28333572414704 67.10168482828885,102.43904225574806 70.90205923467875,106.0 77.70272922469303,104.10824240685906 69.0018720314838,98.21039233088959 69.40191144263372,93.87044791458175 66.9016651227139,86.74845661048312" stroke="#4dd2ff" stroke-linecap="round" stroke-linejoin="round" stroke-width="0.5"><title>2023-03-12 12.0km</title></polyline><polyline fill="none" points="149.2702252813615,41.17307865060866 148.90533792274073,34.270682801143266 156.20308510260656,37.789555020281114 159.1221839748323,42.12046397593804 158.63566749589518,48.34612491936423 160.94662076979876,55.654478380223736 173.96093657473102,66.4816069061635 174.5690821725875,70.81243765982799 169.94717562571168,80.96277598908637 173.23116185655817,91.78973207750823 171.52835418097675,102.61661440122407 176.39351896801963,105.59399410837796 184.05615350743756,104.37597581138834 173.10953273717314,96.79717432067264 173.83930745488033,89.62434676091652 169.82554650586098,80.0154138217913 172.2581288991496,67.15829998929985 169.94717562571168,58.36126742779743 172.62301625823602,56.466515578795224 170.31206298433244,48.21078472363297 164.96038171928376,41.98512325040065 155.5949395042844,36.4361435509054 145.74298081127927,34.94738960231189 127.74187109991908,39.14296533737797 116.06547561148182,38.466260322835296 114.72755529545248,40.49637450138107 149.2702252813615,38.601601348491386 158.02752189803869,39.95501097396482 161.91965372720733,43.067848736885935 171.28509594220668,63.23347609466873 168.9741426683031,79.60940129146911 173.5960492156446,92.46641438349616 170.92020858312026,102.48127882718109 175.5421151299961,106.0 185.02918646438047,103.83463404676877 172.74464537808672,96.39116607804317 173.83930745488033,90.84237636474427 169.46065914677456,77.44399937731214 172.2581288991496,67.83499278477393 169.94717562571168,57.95524936483707 172.37975801946595,56.19583655858878 171.28509594220668,50.646906486246735 166.17667291592807,42.661826765863225 155.83819774352014,36.571484749554656 145.986239050515,34.81204826524481 129.20142053579912,39.27830630552489 117.03850856842473,38.872283365926705 115.5789591325447,40.63171535427682 149.63511264044791,38.601601348491386 158.75729661574587,40.225692760548554 161.79802460735664,42.391145394183695 171.52835418097675,63.639492809190415 169.46065914677456,80.96277598908637 173.5960492156446,93.54910547460895 171.0418377025053,102.3459432417294 172.2581288991496,104.78198201442137 175.5421151299961,105.86466471443418 184.90755734499544,104.37597581138834 172.74464537808672,96.79717432067264 173.47442009625956,88.9476632445585 169.46065914677456,78.79737591941375 172.2581288991496,67.970331309014 169.82554650586098,58.09058873099275 172.62301625823602,55.24845962540712 171.77161242067814,50.78224647499155 166.9064476341009,43.87989236752037 150.85140383755788,34.81204826524481 145.13483521249145,34.67670691665262 129.07979141641408,39.27830630552489 117.03850856842473,38.872283365926705 115.33570089330897,40.902397025958635 148.05393408518285,38.06023717613425 161.91965372720733,42.12046397593804 171.77161242067814,63.36881501087919 169.46065914677456,80.15075130865443 173.83930745488033,93.68444180907682 171.0418377025053,102.3459432417294 175.17722777137533,105.72932941745967 185.02918646438047,104.10530495189596 172.62301625823602,96.79717432067264 173.10953273717314,89.21833668567706 169.33903002692387,77.9853501325706 172.2581288991496,64.85754233028274 169.82554650586098,57.819909987505525 172.13649977976456,57.14321292738896 172.2581288991496,54.97778039809782 169.33903002692387,46.31602077046409 164.96038171928376,41.98512325040065 150.97303295647725,34.54136555630248 145.49972257157788,34.0 114.97081353422254,39.4136472621467 123.6064810315147,40.63171535427682 150.85140383755788,38.330919285537675 161.91965372720733,41.57910100230947 172.13649977976456,62.96279822697397 169.46065914677456,79.47406375850551 174.2041948135011,92.46641438349616 171.28509594220668,102.3459432417294 175.90700248954818,105.4586587883532 185.27244470408186,103.56396309495904 172.74464537808672,96.52650217071641 173.10953273717314,88.9476632445585 169.33903002692387,79.06805108953267 172.2581288991496,65.53423610515893 169.70391738647595,57.41389178566169 172.62301625823602,55.383799222065136 169.33903002692387,46.04534002125729 164.47386524034664,41.17307865060866 150.85140383755788,34.54136555630248 145.74298081127927,34.13534140656702 128.71490405779332,38.736942363204435 116.67362120980397,38.736942363204435 115.82221737178043,40.49637450138107 118.3764288853854,40.76705619576387" stroke="#4dd2ff" stroke-linecap="round" stroke-linejoin="round" stroke-width="0.5"><title>2021-03-06 10.3km</title></polyline><polyline fill="none" points="17.99327731039375,118.42520471534226 20.050420167390257,118.02125347591937 22.833613445051014,122.73401151469443 24.16470588184893,119.36775720631704 26.826890755910426,118.96380620775744 26.463865546509624,117.21335068694316 32.030252100434154,116.40544748492539 40.98487394955009,119.23310688463971 46.06722689094022,117.75195259216707 53.32773109199479,119.50240751623642 60.58823529398069,123.94586131139658 65.91260504163802,135.39106356957927 86.0,132.83273143239785 83.09579831920564,136.3336059448775 85.51596638653427,139.43052693631034 80.55462184874341,155.99221882841084 84.30588235286996,169.1875889976509 82.61176470620558,175.91987828852143 77.65042016794905,177.8049141529482 76.19831932755187,180.22852838982362 74.62521008402109,183.5946531117661 76.561344537884,185.07574571936857 85.03193277306855,184.67181150929537 71.35798319336027,176.45846019347664 71.72100840322673,168.245066209347 67.72773109236732,158.8198074217653 70.87394957989454,147.37477478012443 68.09075630269945,138.08404029428493 70.38991596642882,137.81474282813724 70.75294117676094,135.79501037066802 69.90588235296309,130.81299260957167 63.97647058824077,122.59936148056295 49.576470588333905,115.1935919082025 43.76806722627953,115.05894123122562 27.552941176574677,119.7717081020819 15.573109243065119,119.09845655201934 14.0,120.84890998527408 15.573109243065119,122.19541130727157 50.90756302513182,119.23310688463971 62.16134453751147,124.61911079683341 70.51092436956242,144.81646203564014 67.72773109236732,159.35839515191037 72.44705882342532,173.90019451151602 69.66386554623023,182.24820408329833 71.35798319336027,185.07574571936857 74.86722689075395,185.61432450509164 83.82184873940423,184.13323240273166 71.35798319336027,176.05452378210612 72.08403361355886,169.32223506458104 67.96974789863452,160.70486367482226 70.87394957989454,145.7589987918036 68.09075630269945,137.9493915666826 70.75294117676094,137.68009407806676 70.75294117676094,134.71781867183745 68.81680672289804,128.52395215816796 63.85546218464151,122.73401151469443 53.20672268886119,116.2707969113253 44.37310924381018,114.9242905426072 27.91596638644114,119.90635837754235 15.573109243065119,119.23310688463971 14.484033613000065,121.79146103083622 51.63361344579607,119.23310688463971 60.10420168098062,122.46471143444069 70.75294117676094,142.79673852375709 68.09075630269945,156.6654546664795 72.44705882342532,172.82302877504844 70.02689075609669,182.24820408329833 74.62521008402109,185.88361382915173 83.57983193267137,184.26787719642743 75.35126050421968,177.8049141529482 71.35798319336027,176.86239650193602 71.72100840322673,168.3797123564873 67.60672268923372,156.93474892154336 70.75294117676094,147.37477478012443 68.33277310943231,137.9493915666826 70.75294117676094,137.54544531623833 70.38991596642882,131.3515898816986 67.96974789863452,127.04280657030176 55.868907562922686,119.7717081020819 54.174789916258305,116.67474859813228 49.576470588333905,115.32824257388711 43.88907562987879,114.9242905426072 28.399999999906868,119.7717081020819 19.566386554390192,118.55985510558821 14.242016806267202,119.90635837754235 15.210084033664316,121.79146103083622 19.203361344523728,122.06076122680679 52.117647058330476,119.7717081020819 60.10420168098062,123.5419114822289 71.23697479022667,144.27786935132463 68.09075630269945,161.10880400775932 72.08403361355886,169.86081921716686 69.90588235296309,182.24820408329833 74.62521008402109,185.74896917305887 83.33781512640417,183.72929795179516 71.35798319336027,176.59310564084444 71.842016806826,168.78365072899032 67.72773109236732,158.2812195084989 70.75294117676094,147.77871851902455 67.72773109236732,137.41079654323403 70.51092436956242,137.81474282813724 71.23697479022667,135.52571251499467 65.42857142863795,124.34981103695463 54.05378151265904,116.54009804723319 44.7361344541423,115.05894123122562 27.552941176574677,119.23310688463971 15.210084033664316,118.82915585197043 14.242016806267202,120.31030913535506 22.47058823518455,121.79146103083622 47.277310924138874,118.96380620775744 55.868907562922686,120.31030913535506 60.10420168098062,122.8686615381157 71.60000000009313,144.81646203564014 68.33277310943231,160.83951046410948 72.81008403329179,170.53404914936982 70.51092436956242,182.9214287410723 74.86722689075395,185.4796798255993 82.12773109273985,184.80645625758916 82.73277310933918,183.46000826067757 71.35798319336027,175.65058726724237 72.44705882342532,170.93798697111197 67.72773109236732,157.60798435821198 70.87394957989454,147.77871851902455 68.09075630269945,136.19895706849638 70.51092436956242,131.3515898816986 64.70252100843936,123.40726151689887 53.69075630279258,116.67474859813228 44.131092437077314,114.11638617084827 27.431932772975415,118.6945054846583 16.17815126059577,118.15590390050784 14.968067226465791,119.90635837754235 16.420168067328632,121.38751065183897 27.06890756310895,121.25286050245631 49.576470588333905,118.96380620775744 60.467226890381426,122.8686615381157 71.35798319336027,143.7392764838878 68.45378151256591,155.72292441292666 68.93781512603164,163.26315070840064 72.81008403329179,171.88050815393217 70.51092436956242,183.05607363802847 74.50420168088749,185.4796798255993 81.76470588240772,185.07574571936857 82.24873949587345,182.7867838323582 76.92436974821612,179.6899477696279" stroke="#4dd2ff" stroke-linecap="round" stroke-linejoin="round" stroke-width="0.5"><title>2021-02-25 11.9km</title></polyline><polyline fill="none" points="114.0,177.88147559756908 114.5797950218548,178.8100992204927 116.40702781837899,180.89214382471255 117.79502196190879,181.92826462384255 119.63982430449687,182.49519468710787 119.77159590035444,182.0553353987416 120.09663250361336,182.09443407042272 120.21083455340704,181.90871526137198 120.44802342599723,180.36430510452192 120.47437774518039,178.8687488812575 120.21083455340704,177.49047392946522 119.0512445094646,175.05645858717617 116.74963396776002,171.02897844690597 116.70571010245476,170.7357098082648 116.88140556361759,170.52064566348417 135.97950219619088,162.04484219604637 136.69106881401967,161.91774925839854 137.2357247437467,161.99596031362307 137.75402635429054,162.24036951742892 138.26354319177335,162.8269494817505 139.1859443630674,162.11327679645183 139.55490483157337,160.64681213633594 139.9853587115649,159.96245554491907 141.02196193259442,159.20965857781994 142.93704245972913,158.30042967870395 144.59736456803512,157.82137069250166 149.490483162459,157.00989886435127 151.55490483157337,156.472173405411 153.36456808197545,156.17886754684878 153.5578330893186,156.27663624973502 154.19033674959792,155.8366764303937 154.5065885797958,156.09087564299261 155.16544655931648,155.80734571573703 159.31185944360914,155.04474450182897 161.3060029282351,154.50700982775743 163.79209370422177,152.94267643720377 165.4612005855888,151.5054263227139 165.8828696925193,151.57386721289367 165.8653001463972,151.24143964930408 167.97364568081684,148.85575473741483 168.66764275252353,148.27888085038285 169.53733528550947,148.22999309941952 170.55636896047508,149.18818921833736 171.10980966326315,149.2761864195927 171.93557833088562,149.96060679032962 170.90775988285895,149.15885680292558 170.51244509516982,149.1393018551389 169.56368960469263,148.28865839807258 169.03660322108772,148.19088288360217 169.0190336749074,148.01488674748543 170.43338213762036,145.51180134039896 174.56222547584912,138.94094206962473 175.78330893121893,137.07326301430294 176.36310395313194,136.60389385827875 176.6090775988414,135.59669938867592 176.1522693996667,125.18198504400789 175.9502196193207,124.0768940629423 173.92972181551158,120.17476185308624 174.04392386524705,120.3801405471022 174.2723279648926,120.38992047573993 175.1859443630674,120.00850264054316 177.4260614934028,119.51950355765439 178.20790629572002,119.19676301913569 179.49926793557825,119.05984251589689 179.68374816986034,119.1772029572603 180.2371888725902,119.1674229250857 181.8623718887102,118.50237877688778 182.52122986823088,117.93513218669978 183.16251830157125,117.778649874228 185.83308931184,117.61238718295499 186.0,118.11117453262705 185.75402635429054,117.50480531289213 182.81112737918738,117.66128799958824 182.25768667639932,118.00359313116496 181.97657393850386,118.49259868705121 180.97510980966035,118.9424819542619 179.73645680816844,119.15764289206709 179.13909224007512,119.40214346707944 178.5592972181039,119.40214346707944 178.49780380667653,119.32390333985677 178.7789165446884,119.0207223420366 178.7789165446884,119.19676301913569 178.11127379204845,119.49016354629566 178.6120058564702,119.26522320936056 178.63836017565336,119.42170349052321 178.29575402633054,119.31412332017499 178.33089311857475,119.21632307766413 176.07320644211723,119.8422431866129 174.58857979503227,120.08674230004544 174.21083455340704,120.26278133848973 174.26354319177335,120.41926025659632 173.91215226938948,120.2530013990181 173.60468521225266,120.37036061763501 175.4231332357158,123.62703096400219 175.77452415809967,124.59521239936294 175.7306002927944,125.88610824992065 176.1346998535446,134.22768300239113 175.9853587115649,135.43046255710942 175.7130307466723,135.98784392343805 175.73938506585546,136.52566547869355 172.37481698388,141.95263266312395 170.04685212293407,145.3553566876799 168.51830161054386,147.24245606581098 168.0878477305523,148.0735521562019 167.00732064421754,149.17841174735804 166.29575402633054,150.27348331327812 165.47877013171092,150.98722968567745 165.21522693993757,150.99700700240646 165.20644216693472,151.1729985606944 163.53733528545126,152.6786930729213 161.13030746701406,154.10615143012546 158.6442166910856,154.87853587181598 154.84040995605756,155.5824766542719 153.9180087847053,155.5824766542719 153.26793557824567,155.91489163273945 150.61493411415722,156.30596684433112 144.0878477305523,157.6258358373234 142.52415812585969,158.04623536379222 139.53733528545126,159.43452052705834 136.69106881401967,159.43452052705834 136.26061493408633,159.98200864705723 136.48901903361548,160.558823660489 136.45387994142948,161.12585932070215 136.21669106878107,161.53646960051992 135.77745241578668,161.8590909319828 122.90775988285895,167.56836074320017 116.1698389457888,170.42288910078787 116.25768667634111,170.86279297706642 118.3572474376997,174.81207668484421 118.78770131769124,175.24218848488817 119.77159590035444,177.37317316925328 120.13177159585757,179.16199673554365 119.77159590035444,181.90871526137198 119.53440702782245,181.99668736627063 117.79502196190879,181.61547442476876 117.46998535864986,177.5393492108342 117.18887262075441,177.04082036425825 116.67057101021055,176.83554315092624 114.26354319171514,177.0017199709764 114.10541727661621,177.33407288920716 114.26354319171514,177.99877583825582 115.09809663245687,177.9499007525228 115.15080527082318,178.21382596810145 115.16837481694529,178.028100879681" stroke="#ff1400" stroke-linecap="round" stroke-linejoin="round" stroke-width="0.5"><title>2021-02-21 29.7km</title></polyline><polyline fill="none" points="19.255115961830597,259.6407269481788 19.582537517067976,259.4039216455858 19.88540245569311,257.6460812769801 19.918144611205207,256.5257845168235 19.68894952253322,254.97738756093167 19.287858117342694,253.89349635157123 18.051841746259015,252.01715450441407 16.422919508855557,248.95664277785545 16.447476125555113,248.7015961793004 16.758526603021892,248.4829843248517 34.39836289224331,240.67642632865318 34.96316507505253,240.57622176133737 35.568894952273695,240.6673168263951 36.567530695785535,241.37785566923412 37.304229195055086,240.7857402949303 37.72169167804532,239.39197884951864 38.245566166442586,238.63587843425194 39.08049113230663,238.06196731884847 40.95497953615268,237.16010076727252 43.19781718964805,236.62262112186727 46.91405184176983,236.00314970249747 47.57708049111534,235.73896226950455 49.48431105047348,235.36545478421613 50.482946794014424,235.21058544397965 50.68758526604506,235.31990500156826 52.18553888134193,234.89173609555291 56.63847203273326,234.02628306784027 57.22783083218383,233.78942101741995 57.75989085948095,233.76209074701183 60.24010914051905,232.18603332946805 61.844474761222955,230.83771142123442 62.237380627542734,230.937925121405 62.31105047749588,230.54618012259016 62.204638472001534,230.7283872774642 62.25375170534244,230.96525611424295 63.12960436558933,231.839844192873 63.33424283761997,232.24069466955552 62.0327421555412,233.68009989395068 62.29467939972528,234.3542450400637 62.36016371077858,235.01016596462432 62.204638472001534,235.76629203423363 62.63847203273326,235.6478630032143 64.37380627554376,235.74807219186914 65.22510231923661,235.60231334096898 67.01773533422966,235.66608286268456 68.87585266024689,238.55389132075652 70.18553888128372,237.50627266695665 72.18281036836561,236.64084081514739 72.64938608455122,236.03958929715736 75.30150068210787,233.68920999185502 76.67667121416889,233.0150606496536 77.26603001364856,232.57777231539512 78.49386084583239,230.77393901762844 78.98499317868846,230.2455376376456 81.71077762614004,228.72409148135193 83.08594815823017,227.4486109403806 83.38062755798455,227.47594282595674 83.4215552523674,228.03168964879296 83.66712141878088,228.31411725405633 84.1664392905659,228.3870016761066 85.0914051841537,228.01346848735557 86.0,228.03168964879296 84.96862210091786,227.94058381041395 84.87858117322321,227.63993399243918 83.93724420189392,227.41216841545247 83.38062755798455,227.00218915299774 82.52114597542095,221.25320308101072 81.56343792629195,218.9753892463341 80.43383356067352,216.970872879152 80.47476125508547,216.7704191727753 81.52251023190911,215.90481930127862 82.31650750339031,215.04832410028757 82.17735334238387,214.74763798537606 82.36562073670211,214.56540356420737 82.37380627557286,213.7453448196975 82.82401091401698,210.9479859323692 83.19236016369541,209.66318090129062 83.28240109139006,208.496819680302 83.60982264662744,207.32133336748666 83.84720327417017,206.975063613143 84.73942701224587,206.71991675953905 84.96043656204711,206.8383778745483 85.03410641200026,206.64701754645648 85.77899045016966,206.4556568752596 85.34515688946703,206.51033138776256 85.34515688946703,206.13672166086326 85.1568894952361,205.772223105967 84.10095497951261,201.68064140964998 83.78171896314598,201.6988670657156 83.63437926323968,201.5530617300974 83.41336971346755,200.35927305182122 82.79945429737563,200.43217656011257 82.73396998635144,200.5506446548534 82.88130968619953,200.73290300531517 83.4215552523674,200.45040242941468 83.46248294675024,200.55975757976557 84.96043656204711,205.89068527285417 84.84583901771111,206.18228389271826 83.2742155524902,206.82926548576506 79.0586630286416,207.0206254871082 76.39836289221421,206.92038933870208 76.12005457025953,206.1184967626832 75.94815825371188,206.08204695698078 75.52251023190911,206.24607098460547 75.6207366984745,206.54678104722552 75.54706684855046,206.9295017197146 73.50068212821498,207.08441207797296 71.86357435194077,206.98417598947708 71.3560709413141,207.0752997101954 71.50341064116219,207.84984819516103 71.60163710775669,209.82719942586118 71.50341064116219,210.25546882969502 71.60982264662744,210.43771060807921 71.74079126876313,212.4059019903434 71.77353342424612,214.25560433435749 71.69167803548044,215.6952519614424 71.39699863572605,216.42418006622756 71.4051841745968,216.970872879152 68.73669849926955,221.2258696030185 66.04365620735916,225.22559416540025 64.94679399728193,226.48287982834154 64.50477489765035,227.31195140769705 63.76807639832259,228.2776750243429 62.10641200549435,230.0359984356619 61.70532060027472,230.14532328796486 61.721691678016214,230.47329717361572 61.31241473395494,230.88326311476703 60.2646657571604,231.70319027754158 58.53751705319155,232.62332326704927 57.92360163712874,233.16993317216838 56.9085948158463,233.61632918693795 54.46111869029119,234.19937423417286 52.08731241474743,234.64576594808022 50.8267394270224,234.74597607649048 50.392905866290675,234.96461603049102 42.051841746259015,236.55885217099421 40.39017735334346,236.98701439693104 38.000000000029104,238.1257353727633 36.49386084583239,238.31703930618824 35.356070941343205,238.1895033886176 34.553888130991254,238.38991690505645 34.47203274216736,238.58122036560235 34.83219645291683,239.30088269736007 34.83219645291683,239.71081477050757 34.6439290586859,240.14807391543582 34.16916780357133,240.52156468501926 20.679399727174314,246.47902149439324 15.849931787204696,248.49209316106135 15.931787176057696,248.88377238321118 19.222373806289397,254.79522173918667 19.53342428378528,256.7899205826179 19.304229195113294,258.92120152044663 19.1732605730067,259.22176336377015 17.470668485737406,258.9940650751887 17.364256480243057,258.8847697244928 17.053206002747174,254.9956041260375 16.774897680792492,254.60394729237305 16.177353342442075,254.3853475056385 14.0,254.68592209716735 14.130968622135697,255.56031610516948 14.769440654839855,255.52388316424185 14.851296043692855,255.80623813170678 14.900409276946448,255.6969395230699" stroke="#ff0000" stroke-linecap="round" stroke-linejoin="round" stroke-width="0.5"><title>2021-02-18 31.3km</title></polyline></svg>